<?xml version="1.0" encoding="utf-8"?>
<!-- Generator: Adobe Illustrator 23.0.5, SVG Export Plug-In . SVG Version: 6.00 Build 0)  -->
<svg version="1.1" id="Layer_1" xmlns="http://www.w3.org/2000/svg" xmlns:xlink="http://www.w3.org/1999/xlink" x="0px" y="0px"
	 viewBox="0 0 595.28 841.89" style="enable-background:new 0 0 595.28 841.89;" xml:space="preserve">
<style type="text/css">
	.st0{fill:#28145F;}
	.st1{fill:#402F90;}
	.st2{fill:#352476;}
	.st3{fill:#F57E21;}
	.st4{fill:#231F20;}
	.st5{fill:#735321;}
	.st6{fill:#FFCE2F;}
</style>
<path class="st0" d="M559.39,445.92c-3.31,10.12-17.85,15.64-22.65,25.13c-3.56,7.01-2.18,17.03-3.73,25.3
	c-0.54,2.9-1.44,5.58-3.04,7.84c-6.1,8.64-21.6,9.75-28.92,17.57c-4.82,5.14-6.44,13.76-9.45,20.96c-1.5,3.59-3.34,6.83-6.1,9.09
	c-3.24,2.66-7.6,3.8-12.26,4.56c-7.05,1.16-14.76,1.47-20.23,4.93c-0.3,0.19-0.59,0.38-0.87,0.59c-8.29,6.02-12.22,20.24-21.6,24.7
	c-9.51,4.53-23.64-1.94-33.81,1.53c-9.96,3.4-17.17,17.17-27.68,19.48c-10.26,2.26-22.59-7.19-33.3-6.04
	c-10.44,1.12-20.47,13-31.25,13s-20.81-11.88-31.25-13c-10.71-1.15-23.04,8.3-33.3,6.04c-10.51-2.31-17.72-16.08-27.68-19.48
	c-10.17-3.47-24.3,3-33.81-1.53c-9.7-4.61-13.57-19.67-22.47-25.29c-9.08-5.74-24.35-2.8-32.49-9.49
	c-8.29-6.81-8.33-22.35-15.55-30.05c-7.32-7.82-22.82-8.93-28.92-17.57c-6.16-8.73-1.98-23.68-6.77-33.14
	c-4.8-9.49-19.34-15.01-22.65-25.13c-3.28-10.06,5.19-23.06,3.5-33.64c-1.66-10.39-13.78-20.1-13.78-30.89s12.12-20.5,13.78-30.89
	c1.69-10.58-6.78-23.58-3.5-33.64c3.31-10.12,17.85-15.64,22.65-25.13c4.8-9.46,0.61-24.41,6.77-33.14
	c6.1-8.64,21.6-9.75,28.92-17.57c7.22-7.7,7.26-23.24,15.55-30.05c8.14-6.69,23.41-3.75,32.49-9.49
	c8.9-5.62,12.77-20.68,22.47-25.29c8.72-4.15,21.32,0.94,31.19-0.86c0.42-0.07,0.84-0.16,1.25-0.27c0.46-0.11,0.92-0.25,1.37-0.4
	c6.25-2.13,11.41-8.35,16.99-13.25c3.31-2.92,6.78-5.37,10.69-6.23c3.3-0.73,6.81-0.24,10.42,0.71c7.6,2.01,15.61,6.11,22.88,5.33
	c10.44-1.12,20.47-13,31.25-13s20.81,11.88,31.25,13c10.71,1.15,23.04-8.3,33.3-6.04c10.51,2.31,17.72,16.08,27.68,19.48
	c10.17,3.47,24.3-3,33.81,1.53c9.7,4.61,13.57,19.67,22.47,25.29c9.08,5.74,24.35,2.8,32.49,9.49c8.29,6.81,8.33,22.35,15.55,30.05
	c7.32,7.82,22.82,8.93,28.92,17.57c6.16,8.73,1.98,23.68,6.77,33.14c4.8,9.49,19.34,15.01,22.65,25.13
	c3.28,10.06-5.19,23.06-3.5,33.64c1.66,10.39,13.78,20.1,13.78,30.89s-12.12,20.5-13.78,30.89
	C554.2,422.86,562.67,435.86,559.39,445.92z"/>
<path class="st1" d="M559.39,445.92c-3.31,10.12-17.85,15.64-22.65,25.13c-3.56,7.01-2.18,17.03-3.73,25.3
	c-0.9,0.16-1.77,0.38-2.62,0.67c-9.96,3.4-17.17,17.17-27.68,19.48c-10.26,2.26-22.59-7.19-33.3-6.04c-10.44,1.12-20.47,13-31.25,13
	c-10.79,0-20.81-11.88-31.25-13c-10.71-1.15-23.04,8.3-33.31,6.04c-10.5-2.31-17.71-16.08-27.67-19.48
	c-10.17-3.47-24.31,3-33.81-1.53c-9.7-4.61-13.57-19.67-22.48-25.29c-9.07-5.74-24.34-2.8-32.48-9.49
	c-8.29-6.81-8.33-22.35-15.55-30.05c-7.32-7.82-22.83-8.93-28.92-17.57c-6.16-8.73-1.98-23.68-6.77-33.14
	c-4.81-9.49-19.34-15.01-22.65-25.13c-3.28-10.06,5.19-23.06,3.5-33.64c-1.66-10.39-13.78-20.1-13.78-30.89
	c0-10.79,12.12-20.5,13.78-30.89c1.69-10.58-6.78-23.58-3.5-33.64c3.31-10.12,17.85-15.64,22.65-25.13
	c2.9-5.73,2.51-13.47,3.13-20.62c0.13-1.6,0.32-3.17,0.6-4.68c0.42-0.07,0.84-0.16,1.25-0.27c1.5-3.59,3.35-6.81,6.1-9.08
	c3.24-2.66,7.6-3.8,12.26-4.57c3.31-2.92,6.78-5.37,10.69-6.23c3.3-0.73,6.81-0.24,10.42,0.71c7.6,2.01,15.61,6.11,22.88,5.33
	c10.44-1.12,20.47-13,31.25-13s20.81,11.88,31.25,13c10.71,1.15,23.04-8.3,33.3-6.04c10.51,2.31,17.72,16.08,27.68,19.48
	c10.17,3.47,24.3-3,33.81,1.53c9.7,4.61,13.57,19.67,22.47,25.29c9.08,5.74,24.35,2.8,32.49,9.49c8.29,6.81,8.33,22.35,15.55,30.05
	c7.32,7.82,22.82,8.93,28.92,17.57c6.16,8.73,1.98,23.68,6.77,33.14c4.8,9.49,19.34,15.01,22.65,25.13
	c3.28,10.06-5.19,23.06-3.5,33.64c1.66,10.39,13.78,20.1,13.78,30.89s-12.12,20.5-13.78,30.89
	C554.2,422.86,562.67,435.86,559.39,445.92z"/>
<path class="st2" d="M559.39,445.92c-3.31,10.12-17.85,15.64-22.65,25.13c-3.56,7.01-2.18,17.03-3.73,25.3
	c-0.54,2.9-1.44,5.58-3.04,7.84c-6.1,8.64-21.6,9.75-28.92,17.57c-4.82,5.14-6.44,13.76-9.45,20.96c-0.46,0.11-0.92,0.25-1.37,0.4
	c-6.25,2.13-11.41,8.35-16.99,13.25c-3.31,2.92-6.78,5.38-10.69,6.24c-3.3,0.72-6.8,0.24-10.41-0.72
	c-7.6-2.01-15.62-6.11-22.89-5.33c-10.44,1.12-20.47,13-31.25,13s-20.81-11.88-31.25-13c-10.71-1.15-23.04,8.3-33.3,6.05
	c-10.51-2.32-17.72-16.09-27.68-19.49c-10.17-3.47-24.3,3-33.81-1.52c-9.7-4.62-13.57-19.68-22.47-25.3
	c-9.08-5.74-24.35-2.8-32.49-9.49c-8.29-6.81-8.33-22.35-15.55-30.05c-7.32-7.82-22.82-8.93-28.92-17.57
	c-6.16-8.73-1.98-23.68-6.77-33.14c-4.8-9.49-19.34-15-22.65-25.13c-3.28-10.06,5.19-23.06,3.5-33.64
	c-1.66-10.38-13.78-20.1-13.78-30.89c0-10.78,12.12-20.5,13.78-30.88c1.69-10.58-6.78-23.58-3.5-33.65
	c3.31-10.12,17.85-15.63,22.65-25.13c4.8-9.46,0.61-24.41,6.77-33.14c6.1-8.64,21.61-9.75,28.93-17.56c3.74-4,5.55-10.12,7.59-16.02
	c0.58-1.68,1.18-3.35,1.85-4.95c1.5-3.59,3.35-6.81,6.1-9.08c3.24-2.66,7.6-3.8,12.26-4.57c7.05-1.16,14.76-1.47,20.23-4.92
	c0.3-0.19,0.59-0.39,0.88-0.6c7.6,2.01,15.61,6.11,22.88,5.33c10.44-1.12,20.47-13,31.25-13s20.81,11.88,31.25,13
	c10.71,1.15,23.04-8.3,33.3-6.04c10.51,2.31,17.72,16.08,27.68,19.48c10.17,3.47,24.3-3,33.81,1.53
	c9.7,4.61,13.57,19.67,22.47,25.29c9.08,5.74,24.35,2.8,32.49,9.49c8.29,6.81,8.33,22.35,15.55,30.05
	c7.32,7.82,22.82,8.93,28.92,17.57c6.16,8.73,1.98,23.68,6.77,33.14c4.8,9.49,19.34,15.01,22.65,25.13
	c3.28,10.06-5.19,23.06-3.5,33.64c1.66,10.39,13.78,20.1,13.78,30.89s-12.12,20.5-13.78,30.89
	C554.2,422.86,562.67,435.86,559.39,445.92z"/>
<path class="st3" d="M469.67,370.29c-0.91-2.05-3.03-6.82-7.07-7.99c-3.83-1.11-7.28,1.61-8.49,2.66
	c0.39-6.58,0.36-16.38-2.12-27.53c-6.46-28.95-24.54-44.73-32.54-51.5c-9.86-8.34-19.9-13.41-36.08-18.65
	c-17.36-5.62-42.73-11.73-74.99-12.38c0-0.02,0-0.03,0-0.05c-1.31-0.01-2.6-0.01-3.89,0c-1.29-0.01-2.58-0.01-3.89,0
	c0,0.02,0,0.03,0,0.05c-32.26,0.65-57.63,6.76-74.99,12.38c-16.18,5.24-26.22,10.3-36.08,18.65c-8,6.77-26.08,22.55-32.54,51.5
	c-2.49,11.15-2.51,20.94-2.12,27.53c-1.21-1.06-4.66-3.78-8.49-2.66c-4.04,1.18-6.16,5.94-7.07,7.99
	c-7.45,16.75,4.4,45.15,15.56,71.92c1.1,2.65,3.26,7.65,7.78,10.66c4.87,3.23,10,2.48,12.73,1.78c3.54,10.36,7.07,20.72,10.61,31.08
	c3.07,9.18,6.13,18.35,9.2,27.53c9.73,7.99,18.03,14.25,24.05,18.65c23.1,16.87,37.55,27.25,55.18,31.08
	c12.18,2.64,24.05,1.78,24.05,1.78c2.18-0.16,4.18-0.4,6.01-0.67c1.83,0.27,3.84,0.51,6.01,0.67c0,0,11.87,0.87,24.05-1.78
	c17.62-3.83,32.08-14.2,55.18-31.08c6.02-4.4,14.32-10.66,24.05-18.65c3.07-9.18,6.13-18.35,9.2-27.53
	c3.54-10.36,7.07-20.72,10.61-31.08c2.73,0.7,7.86,1.46,12.73-1.78c4.52-3,6.68-8.01,7.78-10.66
	C465.27,415.45,477.12,387.04,469.67,370.29z"/>
<path class="st4" d="M280.2,346.74c2.07-2.16-25.25-7.33-54.79-6.33c-3.2,0.11-15.17,0.59-28.99,3.23
	c-3.89,0.74-16.72,3.2-16.34,4.76c0.4,1.65,15.36,1.75,26.53,0.97c8.22-0.57,14.91-1.65,19.3-2.48c10.71,0.52,21.43,1.03,32.14,1.55
	C274.73,348.27,279.47,347.51,280.2,346.74z"/>
<path class="st4" d="M325.51,353.04c-2.68-1.85,23.49-14.74,53.57-21.4c3.26-0.72,15.47-3.34,30.14-4.06
	c4.12-0.2,17.74-0.87,17.79,0.97c0.05,1.93-15.03,5.97-26.51,8.05c-8.45,1.53-15.5,2.1-20.16,2.33
	c-10.67,3.39-21.34,6.78-32.02,10.16C331.44,353.29,326.45,353.69,325.51,353.04z"/>
<path d="M450,369.89c-4.24-5.96-12.42-8.52-20-6c-3.3-0.7-6.63-1.37-10-2c-40.59-7.56-79.3-7.95-115-4.1
	c-35.7-3.85-74.41-3.46-115,4.1c-3.37,0.63-6.7,1.3-10,2c-7.58-2.52-15.76,0.04-20,6c-5.94,8.34-2.11,21.03,4,24
	c3.91,1.9,6.52-1.27,10,0c9.43,3.44,1.49,30.78,9,44c12.5,22.03,65.92,33.97,96,6c23.47-21.82,19.56-55.77,19-60l7-22.75l7,22.75
	c-0.56,4.23-4.47,38.18,19,60c30.08,27.97,83.5,16.03,96-6c7.51-13.22-0.43-40.56,9-44c3.48-1.27,6.09,1.9,10,0
	C452.11,390.92,455.94,378.23,450,369.89z"/>
<path class="st5" d="M291,447.89c2.62,5.68,7.99,9.55,14,10c7.19,0.54,14.16-3.89,17-11C311.67,447.22,301.33,447.56,291,447.89z"/>
<path class="st5" d="M260.04,497.38c-1.14-1.34,20.85-5.01,24.73-5.66c3.02-0.5,8.79-1.43,16.28-2.35c4.83-0.6,8.49-0.96,23.92-2.46
	l0,0l0,0l20.5,3.7c4.26,4.57,2.35,6.48,0,7.39c-6.28,2.43-19.53-0.8-46.13-1.23C275.92,496.38,260.97,498.48,260.04,497.38z"/>
<path class="st6" d="M158,434.89c-4.96,0.07-10.12,10.92-10,20c0.05,3.81,1.01,5.96,5,17c2.63,7.28,4.69,13.21,6,17
	c2.68,1.3,6.91,2.8,10,1c4.96-2.89,3.91-12.48,3-20C170.54,457.79,165.25,434.79,158,434.89z"/>
<path class="st6" d="M450,433.89c4.96,0.07,10.12,10.92,10,20c-0.05,3.81-1.01,5.96-5,17c-2.63,7.28-4.69,13.21-6,17
	c-2.68,1.3-6.91,2.8-10,1c-4.96-2.89-3.91-12.48-3-20C437.46,456.79,442.75,433.79,450,433.89z"/>
</svg>
